<svg version="1.2" xmlns="http://www.w3.org/2000/svg" viewBox="0 0 245 44" width="245" height="44">
	<title>Mediamodifier-Design-svg</title>
	<style>
		.s0 { fill: none } 
		.s1 { fill: #171e60 } 
		.s2 { fill: none;stroke: #171e60;stroke-width: 2 } 
	</style>
	<g id="Layer">
		<path id="Layer" class="s0" d="m-4.3 1.6h248.1v40.9h-248.1z"/>
	</g>
	<g id="Layer">
		<path id="Layer" class="s0" d="m-4.3 1.6h124.6v40.9h-124.6z"/>
	</g>
	<g id="Layer">
		<path id="Layer" fill-rule="evenodd" class="s1" d="m25.1 15.6l-8.1-0.2 0.3 21.8h-9.1l0.4-21.2-7.9 0.2 0.2-9 24.2-0.6zm-15.4-0.7l-0.3 21.2h6.8l-0.3-21.8 8.1 0.2v-6.7l-22 0.6-0.2 6.7zm18.8 18.2l-1.7 4.2-8.3-3.5 11.8-26.3h8.1l9.2 28.1-8.4 1.9-1.2-4.4zm9.1-24.5h-6.5l-11.1 24.6 6.2 2.6 1.6-3.8h11.2l1.1 4.2 6.1-1.5zm-0.3 17h-7l4.2-10.4zm-3-6.8l-2.3 5.7h3.8zm22.7 11.2l0.2 6.6-8.5 0.8-0.8-26.5c2.7-4.2 22.2-8.5 22.7 6.7 0.5 13-10.7 12.7-13.6 12.4zm-8-18.8l0.8 25 6.2-0.7-0.2-6.2 0.7-0.5c0 0 13.4 2.4 13-11.1-0.5-13.3-17.4-10-20.5-6.5zm6.6 3.4c0.8-0.9 8.6-3.3 8.8 4.1 0.1 6.8-8.2 4.4-8.2 4.4l-0.5-0.6zm1.3 7.6c1.5 0.3 6.5 1.1 6.4-3.4-0.1-5.1-4.8-4.4-6.5-3.5zm19 10.9l-1.7 4.2-8.3-3.4 11.8-26.4h8.1l9.2 28.1-8.4 1.9-1.2-4.4zm9.1-24.4h-6.5l-11.1 24.6 6.2 2.5 1.5-3.8h11.3l1 4.2 6.2-1.4zm-0.3 17h-7l4.2-10.4zm-3-6.8l-2.3 5.6h3.8zm28.3-1.6c-1.8-1.9-4.8-2.8-7.5-2-1.4 0.5-1.3 2.5 0.4 2.3 4-0.4 9.9-0.5 12 6.3 1.8 6.1-1.2 10.4-5.7 12.3-8.5 3.4-14.2-1.5-14.2-1.5l-0.2-0.6 2.6-6.8 0.8-0.3c0 0 3 1.6 5 1.6 2 0 3.4-0.2 3.6-2.1 0.1-0.8-0.4-1.8-1.5-1.8-1.8-0.1-5.1 1.5-9-1.5-2.5-1.9-5.1-8.8 0.5-13.2 8-6.1 16.2 0 16.2 0l0.2 0.8zm1.9-6.6c-1.7-1.1-8.2-4.6-14.4 0.2-4.9 3.9-2.8 9.7-0.6 11.4 3.4 2.6 6.3 1.2 8.4 1.2 1.9 0.1 2.8 2 2.6 3.2-0.3 2.6-2.7 3-4.7 3-1.7 0-4-1-5-1.4l-2.2 5.8c1.2 0.9 6 3.7 12.7 1 4.1-1.7 6.7-5.4 5-10.9-1.8-6-6.8-5.8-10.8-5.4-3.2 0.3-3.4-3.7-0.8-4.5 2.6-0.9 5.4-0.3 7.5 1.1z"/>
	</g>
	<g id="Layer">
		<path id="Layer" class="s2" d="m120.3 1.6h123.5v40.9h-123.5z"/>
	</g>
	<g id="Layer">
		<path id="Layer" fill-rule="evenodd" class="s1" d="m148.6 15l-8.1-0.1 0.3 21.8h-8l0.4-21.3-7.9 0.2 0.2-7.8 23.1-0.6zm3.5 17.4l-1.6 4-7.2-3 11.5-25.4h7.2l8.9 27-7.2 1.7-1.2-4.3zm6.2-15.5l-3.2 8.1h5.4zm22 12.3l0.2 6.7-7.4 0.7-0.7-25.7c2.9-3.9 21.1-7.6 21.6 6.6 0.4 14.2-13.7 11.7-13.7 11.7zm-0.1-6.8c0 0 7.7 2.2 7.5-3.9-0.1-6.1-6.1-4.8-7.6-3.8zm19.2 9.9l-1.7 4-7.2-3 11.5-25.4h7.2l8.9 27-7.2 1.7-1.2-4.3zm6.2-15.5l-3.2 8.1h5.4zm28-0.9c-2-1.6-4.8-2.4-7.5-1.5-2 0.6-1.8 3.6 0.7 3.4 4-0.4 9.4-0.6 11.3 5.8 1.8 5.9-1 9.8-5.3 11.7-8.2 3.3-13.6-1.4-13.6-1.4l2.6-6.8c0 0 3.1 1.6 5.3 1.6 1.9 0.1 3.8-0.3 4.1-2.5 0.1-1-0.5-2.4-2.1-2.5-1.9-0.1-5 1.5-8.6-1.3-2.4-1.9-4.8-8.2 0.5-12.3 7.6-5.9 15.5 0 15.5 0z"/>
	</g>
</svg>